<?xml version="1.0" standalone="no"?>
<!DOCTYPE svg PUBLIC "-//W3C//DTD SVG 20010904//EN"
 "http://www.w3.org/TR/2001/REC-SVG-20010904/DTD/svg10.dtd">
<svg version="1.0" xmlns="http://www.w3.org/2000/svg"
 width="200.000000pt" height="200.000000pt" viewBox="0 0 200.000000 200.000000"
 preserveAspectRatio="xMidYMid meet">

<g transform="translate(0.000000,200.000000) scale(0.100000,-0.100000)"
fill="#000000" stroke="none">
<path d="M868 1971 c-80 -26 -134 -60 -201 -128 -73 -73 -139 -200 -157 -302
-12 -63 -16 -71 -36 -71 -49 0 -72 -61 -36 -93 12 -11 36 -17 63 -17 l45 0 13
-75 c15 -93 74 -213 136 -283 36 -40 45 -57 45 -86 0 -31 -4 -36 -27 -42 -349
-78 -523 -216 -584 -464 -18 -77 -19 -361 0 -383 12 -16 84 -17 871 -17 785 0
859 1 871 17 18 21 24 194 10 306 -23 187 -102 319 -253 417 -52 34 -206 91
-325 120 -41 10 -43 13 -43 46 0 29 9 47 46 87 60 66 120 193 136 285 l12 72
46 0 c51 0 80 21 80 57 0 25 -30 53 -58 53 -14 0 -22 6 -22 17 0 42 -36 155
-72 224 -41 81 -122 170 -193 214 -102 63 -254 82 -367 46z m247 -112 c135
-50 244 -190 270 -346 l7 -43 -392 0 -392 0 7 42 c28 166 137 302 283 354 57
20 153 17 217 -7z m220 -546 c-16 -107 -89 -235 -162 -286 -195 -135 -428 -21
-498 244 -27 98 -61 89 326 89 l341 0 -7 -47z m-335 -448 c47 0 100 4 118 8
l32 9 0 -40 c0 -77 -62 -131 -150 -131 -88 0 -150 54 -150 131 l0 40 33 -9
c17 -4 70 -8 117 -8z m-229 -143 c35 -62 90 -100 167 -113 128 -23 238 20 290
112 l27 46 65 -16 65 -16 3 -137 3 -138 -391 0 -391 0 3 137 3 138 60 17 c33
9 62 17 65 17 3 0 17 -21 31 -47z m-271 -146 l0 -113 -52 -5 c-75 -8 -78 -15
-78 -190 l0 -148 -75 0 -75 0 0 78 c1 183 42 305 135 398 45 45 114 92 138 94
4 0 7 -51 7 -114z m1077 75 c139 -90 202 -231 203 -458 l0 -73 -75 0 -75 0 0
148 c0 175 -3 182 -78 190 l-52 5 0 113 c0 63 4 114 8 114 5 0 36 -18 69 -39z
m-59 -418 l3 -113 -521 0 -520 0 0 108 c0 60 3 112 7 115 3 4 236 6 517 5
l511 -3 3 -112z"/>
<path d="M918 1820 c-98 -52 -112 -188 -27 -265 92 -83 236 -39 268 82 37 138
-112 251 -241 183z m127 -114 c30 -45 -13 -98 -66 -81 -55 18 -38 105 21 105
20 0 35 -8 45 -24z"/>
</g>
</svg>
